<svg width="21" height="21" viewBox="0 0 21 21" fill="none" xmlns="http://www.w3.org/2000/svg">
<path d="M10.2461 2.42784C12.9172 2.42784 13.2308 2.43997 14.2865 2.48848C15.2629 2.53295 15.7908 2.69869 16.1441 2.84018C16.6124 3.02614 16.9458 3.24444 17.2951 3.60018C17.6444 3.95592 17.8627 4.2955 18.0413 4.77252C18.1762 5.1323 18.3429 5.66996 18.3866 6.66443C18.4342 7.73974 18.4461 8.0591 18.4461 10.7797C18.4461 13.5004 18.4342 13.8197 18.3866 14.895C18.3429 15.8895 18.1802 16.4272 18.0413 16.787C17.8587 17.264 17.6444 17.6035 17.2951 17.9593C16.9458 18.315 16.6124 18.5374 16.1441 18.7193C15.7908 18.8567 15.2629 19.0265 14.2865 19.071C13.2308 19.1195 12.9172 19.1316 10.2461 19.1316C7.5749 19.1316 7.26134 19.1195 6.20558 19.071C5.22919 19.0265 4.70131 18.8608 4.34807 18.7193C3.87972 18.5333 3.54632 18.315 3.19705 17.9593C2.84777 17.6035 2.62947 17.264 2.45087 16.787C2.31592 16.4272 2.14922 15.8895 2.10556 14.895C2.05793 13.8197 2.04602 13.5004 2.04602 10.7797C2.04602 8.0591 2.05793 7.73974 2.10556 6.66443C2.14922 5.66996 2.31195 5.1323 2.45087 4.77252C2.63344 4.2955 2.84777 3.95592 3.19705 3.60018C3.54632 3.24444 3.87972 3.0221 4.34807 2.84018C4.70131 2.70274 5.22919 2.53295 6.20558 2.48848C7.26134 2.43593 7.5749 2.42784 10.2461 2.42784ZM10.2461 0.592529C7.53124 0.592529 7.1899 0.604657 6.12223 0.653167C5.05853 0.701678 4.33219 0.875507 3.69714 1.12614C3.03828 1.38487 2.48262 1.73657 1.92695 2.30252C1.37129 2.86848 1.02995 3.43848 0.77196 4.1055C0.52588 4.75231 0.355211 5.49209 0.307583 6.57953C0.259954 7.66294 0.248047 8.01059 0.248047 10.7757C0.248047 13.5408 0.259954 13.8885 0.307583 14.9759C0.355211 16.0593 0.52588 16.7991 0.77196 17.4499C1.02598 18.121 1.37129 18.6869 1.92695 19.2529C2.48262 19.8189 3.04225 20.1665 3.69714 20.4293C4.33219 20.6799 5.05853 20.8538 6.1262 20.9023C7.19387 20.9508 7.53124 20.9629 10.25 20.9629C12.9688 20.9629 13.3062 20.9508 14.3739 20.9023C15.4376 20.8538 16.1639 20.6799 16.8029 20.4293C17.4618 20.1706 18.0174 19.8189 18.5731 19.2529C19.1288 18.6869 19.4701 18.117 19.7281 17.4499C19.9742 16.8031 20.1449 16.0633 20.1925 14.9759C20.2401 13.8885 20.252 13.5448 20.252 10.7757C20.252 8.00655 20.2401 7.66294 20.1925 6.57549C20.1449 5.49209 19.9742 4.75231 19.7281 4.10146C19.4741 3.43039 19.1288 2.86444 18.5731 2.29848C18.0174 1.73253 17.4578 1.38487 16.8029 1.1221C16.1679 0.871465 15.4415 0.697635 14.3739 0.649125C13.3022 0.604657 12.9609 0.592529 10.2461 0.592529Z" fill="white"/>
<path d="M10.246 5.54468C7.41215 5.54468 5.11011 7.88531 5.11011 10.7757C5.11011 13.6661 7.41215 16.0068 10.246 16.0068C13.0799 16.0068 15.382 13.6621 15.382 10.7757C15.382 7.88935 13.0799 5.54468 10.246 5.54468ZM10.246 14.1715C8.40441 14.1715 6.91205 12.6515 6.91205 10.7757C6.91205 8.89999 8.40441 7.37999 10.246 7.37999C12.0877 7.37999 13.58 8.89999 13.58 10.7757C13.58 12.6515 12.0877 14.1715 10.246 14.1715Z" fill="white"/>
<path d="M15.5846 6.55937C16.2466 6.55937 16.7833 6.01278 16.7833 5.33852C16.7833 4.66427 16.2466 4.11768 15.5846 4.11768C14.9226 4.11768 14.386 4.66427 14.386 5.33852C14.386 6.01278 14.9226 6.55937 15.5846 6.55937Z" fill="white"/>
</svg>
