<svg width="23" height="23" viewBox="0 0 23 23" fill="none" xmlns="http://www.w3.org/2000/svg">
<g clip-path="url(#clip0)">
<path d="M22.25 11.7777C22.25 5.59004 17.3251 0.573975 11.25 0.573975C5.17486 0.573975 0.25 5.59004 0.25 11.7777C0.25 17.3697 4.27252 22.0048 9.53125 22.8453V15.0163H6.73828V11.7777H9.53125V9.30936C9.53125 6.50144 11.1735 4.95042 13.6861 4.95042C14.8892 4.95042 16.1484 5.16924 16.1484 5.16924V7.92641H14.7614C13.395 7.92641 12.9688 8.7901 12.9688 9.67699V11.7777H16.0195L15.5318 15.0163H12.9688V22.8453C18.2275 22.0048 22.25 17.3697 22.25 11.7777Z" fill="white"/>
</g>
<defs>
<clipPath id="clip0">
<rect width="22" height="22.4074" fill="white" transform="translate(0.25 0.573975)"/>
</clipPath>
</defs>
</svg>
