<svg width="23" height="23" viewBox="0 0 23 23" fill="none" xmlns="http://www.w3.org/2000/svg">
<path fill-rule="evenodd" clip-rule="evenodd" d="M14.6269 0.573975H7.87315C1.70942 0.573975 0.25 2.06042 0.25 8.33829V15.2171C0.25 21.4949 1.70942 22.9814 7.87315 22.9814H14.6269C20.7906 22.9814 22.25 21.4949 22.25 15.2171V8.33829C22.25 2.06042 20.7906 0.573975 14.6269 0.573975ZM17.7785 7.68989C18.2598 7.68989 18.3685 7.9429 18.2598 8.29079C18.0902 9.08809 16.6817 11.203 16.2455 11.8581C16.1626 11.9826 16.1148 12.0543 16.1173 12.0543C15.9465 12.339 15.8844 12.4655 16.1173 12.7818C16.2015 12.8987 16.38 13.0771 16.584 13.281C16.7938 13.4907 17.0307 13.7274 17.2196 13.9519C17.9027 14.7426 18.4306 15.4068 18.5703 15.8653C18.6945 16.3239 18.4772 16.5611 18.0114 16.5611H16.4123C15.9885 16.5611 15.77 16.3132 15.3045 15.785C15.1048 15.5584 14.8598 15.2804 14.5336 14.9482C13.5866 14.0152 13.1674 13.8887 12.9345 13.8887C12.6084 13.8887 12.5153 13.9678 12.5153 14.4422V15.9128C12.5153 16.3081 12.3911 16.5453 11.3664 16.5453C9.67407 16.5453 7.79546 15.5016 6.47577 13.5566C4.48847 10.7102 3.94507 8.55961 3.94507 8.13266C3.94507 7.89546 4.0227 7.67407 4.48847 7.67407H6.10315C6.50682 7.67407 6.66208 7.84802 6.81733 8.3066C7.60915 10.6312 8.92884 12.6711 9.47224 12.6711C9.67407 12.6711 9.76723 12.5762 9.76723 12.0543V9.65073C9.7289 8.96753 9.49539 8.66986 9.32224 8.44912C9.21485 8.31223 9.13067 8.20492 9.13067 8.05359C9.13067 7.86383 9.28593 7.67407 9.53434 7.67407H12.0495C12.3911 7.67407 12.5153 7.86383 12.5153 8.27498V11.5167C12.5153 11.8646 12.655 11.9911 12.7637 11.9911C12.9655 11.9911 13.1363 11.8646 13.5089 11.4851C14.6578 10.1726 15.4807 8.14847 15.4807 8.14847C15.5894 7.91127 15.7757 7.68989 16.1794 7.68989H17.7785Z" fill="white"/>
</svg>
