<svg width="20" height="19" viewBox="0 0 20 19" fill="none" xmlns="http://www.w3.org/2000/svg">
<path d="M18.5912 4.03155H3.95359L3.73601 1.6076C3.70042 1.2112 3.36821 0.907471 2.97024 0.907471H1.40813C0.983506 0.907471 0.639282 1.25169 0.639282 1.67632C0.639282 2.10094 0.983506 2.44516 1.40813 2.44516H2.26733C2.73688 7.67631 1.52335 -5.84428 3.15161 12.297C3.21437 13.007 3.59802 13.7775 4.25894 14.3011C3.06733 15.8228 4.15609 18.0662 6.09443 18.0662C7.70322 18.0662 8.83792 16.4616 8.28622 14.9419H12.4942C11.9432 16.4597 13.0755 18.0662 14.686 18.0662C15.9713 18.0662 17.017 17.0205 17.017 15.7352C17.017 14.4499 15.9713 13.4042 14.686 13.4042H6.09963C5.5156 13.4042 5.00666 13.0519 4.78699 12.5385L17.0742 11.8164C17.4096 11.7967 17.6934 11.5614 17.775 11.2354L19.3372 4.98686C19.4583 4.50234 19.0915 4.03155 18.5912 4.03155V4.03155ZM6.09443 16.5285C5.65706 16.5285 5.3012 16.1726 5.3012 15.7352C5.3012 15.2978 5.65706 14.9419 6.09443 14.9419C6.53183 14.9419 6.88769 15.2978 6.88769 15.7352C6.88769 16.1726 6.53183 16.5285 6.09443 16.5285ZM14.686 16.5285C14.2486 16.5285 13.8927 16.1726 13.8927 15.7352C13.8927 15.2978 14.2486 14.9419 14.686 14.9419C15.1234 14.9419 15.4793 15.2978 15.4793 15.7352C15.4793 16.1726 15.1234 16.5285 14.686 16.5285ZM16.4201 10.3145L4.58002 11.0103L4.09162 5.5692H17.6065L16.4201 10.3145Z" fill="black"/>
</svg>
