<svg width="25" height="23" viewBox="0 0 25 23" fill="none" xmlns="http://www.w3.org/2000/svg">
<path d="M23.0517 4.56457H4.75458L4.4826 1.47852C4.43812 0.973852 4.02285 0.587158 3.52539 0.587158H1.57275C1.04197 0.587158 0.611694 1.02541 0.611694 1.56601C0.611694 2.10662 1.04197 2.54487 1.57275 2.54487H2.64676C3.23369 9.2049 1.71677 -8.00882 3.75211 15.0877C3.83055 15.9917 4.31012 16.9726 5.13626 17.6392C3.64676 19.5766 5.00771 22.4327 7.43063 22.4327C9.44161 22.4327 10.86 20.3899 10.1704 18.4551H15.4304C14.7416 20.3874 16.1569 22.4327 18.1701 22.4327C19.7767 22.4327 21.0838 21.1014 21.0838 19.4651C21.0838 17.8287 19.7767 16.4974 18.1701 16.4974H7.43712C6.70709 16.4974 6.07091 16.0488 5.79632 15.3952L21.1553 14.4758C21.5746 14.4508 21.9294 14.1511 22.0313 13.7361L23.9841 5.78082C24.1354 5.16396 23.677 4.56457 23.0517 4.56457V4.56457ZM7.43063 20.475C6.88392 20.475 6.43909 20.0219 6.43909 19.4651C6.43909 18.9082 6.88392 18.4551 7.43063 18.4551C7.97738 18.4551 8.42221 18.9082 8.42221 19.4651C8.42221 20.0219 7.97738 20.475 7.43063 20.475ZM18.1701 20.475C17.6233 20.475 17.1785 20.0219 17.1785 19.4651C17.1785 18.9082 17.6233 18.4551 18.1701 18.4551C18.7168 18.4551 19.1617 18.9082 19.1617 19.4651C19.1617 20.0219 18.7168 20.475 18.1701 20.475ZM20.3378 12.5637L5.53762 13.4496L4.92712 6.52223H21.8208L20.3378 12.5637Z" fill="#FFD600"/>
</svg>
