<svg width="26" height="27" viewBox="0 0 26 27" fill="none" xmlns="http://www.w3.org/2000/svg">
<path d="M13.3125 22.7036C10.1875 22.7036 7.425 21.0739 5.8125 18.6295C5.85 16.0832 10.8125 14.6827 13.3125 14.6827C15.8125 14.6827 20.775 16.0832 20.8125 18.6295C19.2 21.0739 16.4375 22.7036 13.3125 22.7036ZM13.3125 4.62486C14.3071 4.62486 15.2609 5.02727 15.9642 5.74355C16.6674 6.45984 17.0625 7.43133 17.0625 8.44431C17.0625 9.45729 16.6674 10.4288 15.9642 11.1451C15.2609 11.8613 14.3071 12.2638 13.3125 12.2638C12.3179 12.2638 11.3641 11.8613 10.6608 11.1451C9.95759 10.4288 9.5625 9.45729 9.5625 8.44431C9.5625 7.43133 9.95759 6.45984 10.6608 5.74355C11.3641 5.02727 12.3179 4.62486 13.3125 4.62486V4.62486ZM13.3125 0.80542C11.671 0.80542 10.0455 1.13473 8.52896 1.77455C7.01239 2.41436 5.6344 3.35216 4.47367 4.53438C2.12946 6.922 0.8125 10.1603 0.8125 13.5369C0.8125 16.9135 2.12946 20.1518 4.47367 22.5394C5.6344 23.7216 7.01239 24.6594 8.52896 25.2993C10.0455 25.9391 11.671 26.2684 13.3125 26.2684C16.6277 26.2684 19.8071 24.927 22.1513 22.5394C24.4955 20.1518 25.8125 16.9135 25.8125 13.5369C25.8125 6.49639 20.1875 0.80542 13.3125 0.80542Z" fill="black"/>
</svg>
