<svg width="22" height="22" viewBox="0 0 22 22" fill="none" xmlns="http://www.w3.org/2000/svg">
<path d="M10.9961 2.70983C13.6672 2.70983 13.9808 2.72195 15.0365 2.77046C16.0129 2.81493 16.5408 2.98068 16.8941 3.12217C17.3624 3.30812 17.6958 3.52642 18.0451 3.88216C18.3944 4.23791 18.6127 4.57748 18.7913 5.0545C18.9262 5.41429 19.0929 5.95194 19.1366 6.94641C19.1842 8.02173 19.1961 8.34109 19.1961 11.0617C19.1961 13.7823 19.1842 14.1017 19.1366 15.177C19.0929 16.1715 18.9302 16.7092 18.7913 17.0689C18.6087 17.546 18.3944 17.8855 18.0451 18.2413C17.6958 18.597 17.3624 18.8194 16.8941 19.0013C16.5408 19.1387 16.0129 19.3085 15.0365 19.353C13.9808 19.4015 13.6672 19.4136 10.9961 19.4136C8.3249 19.4136 8.01134 19.4015 6.95558 19.353C5.97919 19.3085 5.45131 19.1428 5.09807 19.0013C4.62972 18.8153 4.29632 18.597 3.94705 18.2413C3.59777 17.8855 3.37947 17.546 3.20087 17.0689C3.06592 16.7092 2.89922 16.1715 2.85556 15.177C2.80793 14.1017 2.79602 13.7823 2.79602 11.0617C2.79602 8.34109 2.80793 8.02173 2.85556 6.94641C2.89922 5.95194 3.06195 5.41429 3.20087 5.0545C3.38344 4.57748 3.59777 4.23791 3.94705 3.88216C4.29632 3.52642 4.62972 3.30408 5.09807 3.12217C5.45131 2.98472 5.97919 2.81493 6.95558 2.77046C8.01134 2.71791 8.3249 2.70983 10.9961 2.70983ZM10.9961 0.874512C8.28124 0.874512 7.9399 0.886639 6.87223 0.93515C5.80853 0.98366 5.08219 1.15749 4.44714 1.40813C3.78828 1.66685 3.23262 2.01855 2.67695 2.58451C2.12129 3.15046 1.77995 3.72046 1.52196 4.38748C1.27588 5.03429 1.10521 5.77407 1.05758 6.86152C1.00995 7.94492 0.998047 8.29258 0.998047 11.0577C0.998047 13.8228 1.00995 14.1704 1.05758 15.2579C1.10521 16.3413 1.27588 17.0811 1.52196 17.7319C1.77598 18.403 2.12129 18.9689 2.67695 19.5349C3.23262 20.1008 3.79225 20.4485 4.44714 20.7113C5.08219 20.9619 5.80853 21.1357 6.8762 21.1842C7.94387 21.2328 8.28124 21.2449 11 21.2449C13.7188 21.2449 14.0562 21.2328 15.1239 21.1842C16.1876 21.1357 16.9139 20.9619 17.5529 20.7113C18.2118 20.4525 18.7674 20.1008 19.3231 19.5349C19.8788 18.9689 20.2201 18.3989 20.4781 17.7319C20.7242 17.0851 20.8949 16.3453 20.9425 15.2579C20.9901 14.1704 21.002 13.8268 21.002 11.0577C21.002 8.28853 20.9901 7.94492 20.9425 6.85747C20.8949 5.77407 20.7242 5.03429 20.4781 4.38344C20.2241 3.71238 19.8788 3.14642 19.3231 2.58046C18.7674 2.01451 18.2078 1.66685 17.5529 1.40408C16.9179 1.15345 16.1915 0.979618 15.1239 0.931107C14.0522 0.886639 13.7109 0.874512 10.9961 0.874512Z" fill="black"/>
<path d="M10.996 5.82666C8.16215 5.82666 5.86011 8.16729 5.86011 11.0577C5.86011 13.9481 8.16215 16.2888 10.996 16.2888C13.8299 16.2888 16.132 13.9441 16.132 11.0577C16.132 8.17133 13.8299 5.82666 10.996 5.82666ZM10.996 14.4534C9.15441 14.4534 7.66205 12.9334 7.66205 11.0577C7.66205 9.18197 9.15441 7.66197 10.996 7.66197C12.8377 7.66197 14.33 9.18197 14.33 11.0577C14.33 12.9334 12.8377 14.4534 10.996 14.4534Z" fill="black"/>
<path d="M16.3346 6.84135C16.9966 6.84135 17.5333 6.29476 17.5333 5.6205C17.5333 4.94625 16.9966 4.39966 16.3346 4.39966C15.6726 4.39966 15.136 4.94625 15.136 5.6205C15.136 6.29476 15.6726 6.84135 16.3346 6.84135Z" fill="black"/>
</svg>
