<svg width="94" height="34" viewBox="0 0 94 34" fill="none" xmlns="http://www.w3.org/2000/svg">
<path fill-rule="evenodd" clip-rule="evenodd" d="M65.14 4.62948H58.5498V11.2405H65.14V4.62948ZM54.7205 0.966553V15.1205H68.9694V0.966553H54.7205Z" fill="black"/>
<path fill-rule="evenodd" clip-rule="evenodd" d="M65.1402 22.2774H58.55V28.8885H65.1402V22.2774ZM54.7206 18.6145V32.7685H68.9696V18.6145H54.7206Z" fill="black"/>
<path d="M60.1723 13.0288H63.5176V19.9801H60.1723V13.0288Z" fill="black"/>
<path d="M9.91806 10.0618V15.1206H5.97954V10.0014L0.668518 1.01245H4.82584L8.12782 6.6154L11.4298 1.01245H15.249L9.91806 10.0618Z" fill="black"/>
<path d="M27.3714 12.037V15.1206H16.1924V1.01245H27.1128V4.09609H20.0912V6.47432H26.2774V9.45718H20.0912V12.037H27.3714Z" fill="black"/>
<path d="M29.557 1.01245H33.4955V11.9563H40.1393V15.1206H29.557V1.01245Z" fill="black"/>
<path d="M41.6978 1.01245H45.6363V11.9563H52.2801V15.1206H41.6978V1.01245Z" fill="black"/>
<path d="M93.3769 1.01245L88.8616 15.1206H84.6446L81.9791 6.53478L79.1943 15.1206H74.9773L70.4619 1.01245H74.5198L77.3245 10.0215L80.2684 1.01245H83.8887L86.6934 10.1021L89.6174 1.01245H93.3769Z" fill="black"/>
<path d="M52.5889 18.6592V32.8238H49.3336L43.1625 25.2761V32.8238H39.2881V18.6592H42.5434L48.7145 26.2069V18.6592H52.5889Z" fill="black"/>
<path d="M93.3771 18.6592L88.8437 32.8238H84.6098L81.9336 24.2036L79.1377 32.8238H74.9038L70.3703 18.6592H74.4444L77.2604 27.7043L80.2161 18.6592H83.8509L86.6668 27.7853L89.6025 18.6592H93.3771Z" fill="black"/>
<path d="M31.3386 33.1071C30.2052 33.1071 29.098 32.9817 28.0167 32.7309C26.9485 32.467 26.0692 32.1172 25.3788 31.6816L26.8638 28.2762C27.5152 28.659 28.2447 28.9692 29.0524 29.2068C29.86 29.4312 30.6351 29.5434 31.3777 29.5434C32.016 29.5434 32.4719 29.484 32.7455 29.3652C33.019 29.2332 33.1558 29.0418 33.1558 28.791C33.1558 28.5006 32.9734 28.2828 32.6087 28.1377C32.257 27.9925 31.6708 27.8341 30.8501 27.6625C29.7949 27.4381 28.9156 27.2005 28.2121 26.9497C27.5087 26.6858 26.8964 26.2634 26.3753 25.6826C25.8543 25.0887 25.5937 24.2901 25.5937 23.287C25.5937 22.4158 25.8347 21.6239 26.3167 20.9111C26.7987 20.1984 27.5152 19.6374 28.4662 19.2283C29.4301 18.8191 30.596 18.6145 31.9639 18.6145C32.9018 18.6145 33.8202 18.7201 34.7191 18.9313C35.6309 19.1293 36.4321 19.4262 37.1225 19.8222L35.7351 23.2078C34.3934 22.5214 33.1233 22.1783 31.9248 22.1783C30.7393 22.1783 30.1466 22.4686 30.1466 23.0494C30.1466 23.3266 30.3225 23.5378 30.6742 23.683C31.0259 23.8149 31.6056 23.9601 32.4133 24.1185C33.4554 24.3165 34.3348 24.5475 35.0512 24.8115C35.7677 25.0623 36.3865 25.478 36.9076 26.0588C37.4417 26.6396 37.7087 27.4315 37.7087 28.4346C37.7087 29.3058 37.4677 30.0977 36.9857 30.8105C36.5037 31.51 35.7807 32.071 34.8168 32.4934C33.8658 32.9025 32.7064 33.1071 31.3386 33.1071Z" fill="black"/>
</svg>
