<svg width="151" height="33" viewBox="0 0 151 33" fill="none" xmlns="http://www.w3.org/2000/svg">
<path d="M1.15024 0.0124512H1.73819V4.5631L5.34643 0.0124512H5.88605V5.50461H5.2981V0.961811L1.68986 5.50461H1.15024V0.0124512Z" fill="black"/>
<path d="M12.5002 0.0124512V5.50461H11.9123V2.97037H8.38459V5.50461H7.78858V0.0124512H8.38459V2.46039H11.9123V0.0124512H12.5002Z" fill="black"/>
<path d="M18.0921 0.514592H16.1108V5.50461H15.5229V0.514592H13.5415V0.0124512H18.0921V0.514592Z" fill="black"/>
<path d="M23.125 5.00247V5.50461H19.1383V0.0124512H23.0042V0.514592H19.7343V2.46823H22.6499V2.96253H19.7343V5.00247H23.125Z" fill="black"/>
<path d="M26.5575 0.0124512C27.277 0.0124512 27.8408 0.179831 28.2489 0.514592C28.657 0.849352 28.861 1.30965 28.861 1.89548C28.861 2.48131 28.657 2.9416 28.2489 3.27637C27.8408 3.6059 27.277 3.77066 26.5575 3.77066H25.0434V5.50461H24.4474V0.0124512H26.5575ZM26.5414 3.26067C27.0999 3.26067 27.5267 3.14298 27.822 2.90761C28.1174 2.667 28.265 2.32962 28.265 1.89548C28.265 1.45087 28.1174 1.11088 27.822 0.875506C27.5267 0.634896 27.0999 0.514592 26.5414 0.514592H25.0434V3.26067H26.5414Z" fill="black"/>
<path d="M34.7985 0.0124512V5.50461H34.2105V2.97037H30.6828V5.50461H30.0868V0.0124512H30.6828V2.46039H34.2105V0.0124512H34.7985Z" fill="black"/>
<path d="M40.6884 5.00247V5.50461H36.7016V0.0124512H40.5675V0.514592H37.2976V2.46823H40.2132V2.96253H37.2976V5.00247H40.6884Z" fill="black"/>
<path d="M45.6995 0.514592H43.7181V5.50461H43.1302V0.514592H41.1489V0.0124512H45.6995V0.514592Z" fill="black"/>
<path d="M46.0189 3.13514H48.1291V3.62159H46.0189V3.13514Z" fill="black"/>
<path d="M52.9039 2.67223C53.2958 2.75069 53.5938 2.90499 53.7979 3.13514C54.0019 3.36006 54.1039 3.65559 54.1039 4.02173C54.1039 4.49772 53.9294 4.86386 53.5804 5.12016C53.2368 5.37646 52.7293 5.50461 52.0582 5.50461H49.5614V0.0124512H51.9051C52.5065 0.0124512 52.9763 0.132755 53.3146 0.373364C53.6529 0.613974 53.822 0.96181 53.822 1.41688C53.822 1.72548 53.7415 1.98701 53.5804 2.20147C53.4193 2.4107 53.1938 2.56761 52.9039 2.67223ZM50.1493 2.49962H51.8729C52.3078 2.49962 52.6407 2.41331 52.8716 2.2407C53.1079 2.06809 53.226 1.81702 53.226 1.48749C53.226 1.15796 53.1079 0.906889 52.8716 0.734278C52.6407 0.561668 52.3078 0.475362 51.8729 0.475362H50.1493V2.49962ZM52.0582 5.0417C53.03 5.0417 53.516 4.68864 53.516 3.9825C53.516 3.29206 53.03 2.94684 52.0582 2.94684H50.1493V5.0417H52.0582Z" fill="black"/>
<path d="M55.5941 0.0124512H56.1821V4.5631L59.7903 0.0124512H60.3299V5.50461H59.742V0.961811L56.1337 5.50461H55.5941V0.0124512Z" fill="black"/>
<path d="M65.9212 0.514592H63.9399V5.50461H63.352V0.514592H61.3707V0.0124512H65.9212V0.514592Z" fill="black"/>
<path d="M69.0776 0.0124512C69.7971 0.0124512 70.3609 0.179831 70.7689 0.514592C71.177 0.849352 71.381 1.30965 71.381 1.89548C71.381 2.48131 71.177 2.9416 70.7689 3.27637C70.3609 3.6059 69.7971 3.77066 69.0776 3.77066H67.5634V5.50461H66.9674V0.0124512H69.0776ZM69.0615 3.26067C69.6199 3.26067 70.0467 3.14298 70.3421 2.90761C70.6374 2.667 70.785 2.32962 70.785 1.89548C70.785 1.45087 70.6374 1.11088 70.3421 0.875506C70.0467 0.634896 69.6199 0.514592 69.0615 0.514592H67.5634V3.26067H69.0615Z" fill="black"/>
<path d="M72.6068 0.0124512H73.1948V4.5631L76.803 0.0124512H77.3427V5.50461H76.7547V0.961811L73.1465 5.50461H72.6068V0.0124512Z" fill="black"/>
<path d="M83.9568 0.0124512V5.50461H83.3689V2.97037H79.8412V5.50461H79.2452V0.0124512H79.8412V2.46039H83.3689V0.0124512H83.9568Z" fill="black"/>
<path d="M89.4682 4.03742H86.3271L85.6505 5.50461H85.0304L87.6077 0.0124512H88.1956L90.7729 5.50461H90.1447L89.4682 4.03742ZM89.2507 3.56667L87.8976 0.616589L86.5445 3.56667H89.2507Z" fill="black"/>
<path d="M3.62285 18.8294C3.06443 18.8294 2.55702 18.7091 2.10062 18.4685C1.64959 18.2227 1.29521 17.8879 1.03748 17.4643C0.785117 17.0406 0.658936 16.5646 0.658936 16.0363C0.658936 15.508 0.785117 15.032 1.03748 14.6083C1.29521 14.1846 1.64959 13.8525 2.10062 13.6119C2.55702 13.3661 3.06443 13.2431 3.62285 13.2431C4.18126 13.2431 4.6833 13.3634 5.12896 13.604C5.57999 13.8447 5.93438 14.1794 6.19211 14.6083C6.44984 15.032 6.5787 15.508 6.5787 16.0363C6.5787 16.5646 6.44984 17.0432 6.19211 17.4721C5.93438 17.8958 5.57999 18.2279 5.12896 18.4685C4.6833 18.7091 4.18126 18.8294 3.62285 18.8294ZM3.62285 18.3116C4.06851 18.3116 4.47121 18.2148 4.83096 18.0213C5.19071 17.8225 5.47261 17.5506 5.67664 17.2053C5.88068 16.8549 5.9827 16.4652 5.9827 16.0363C5.9827 15.6074 5.88068 15.2203 5.67664 14.8751C5.47261 14.5246 5.19071 14.2526 4.83096 14.0591C4.47121 13.8603 4.06851 13.761 3.62285 13.761C3.17719 13.761 2.7718 13.8603 2.40668 14.0591C2.04693 14.2526 1.76235 14.5246 1.55294 14.8751C1.3489 15.2203 1.24689 15.6074 1.24689 16.0363C1.24689 16.4652 1.3489 16.8549 1.55294 17.2053C1.76235 17.5506 2.04693 17.8225 2.40668 18.0213C2.7718 18.2148 3.17719 18.3116 3.62285 18.3116Z" fill="black"/>
<path d="M14.0335 16.0284C14.0335 16.7555 13.7677 17.3283 13.2361 17.7467C12.7099 18.1599 11.9716 18.3796 11.0212 18.4058V18.9707H10.4655V18.4058C9.51512 18.3744 8.77414 18.1521 8.24257 17.7389C7.71637 17.3256 7.45327 16.7555 7.45327 16.0284C7.45327 15.3014 7.71637 14.7312 8.24257 14.318C8.77414 13.9048 9.51512 13.6825 10.4655 13.6511V13.1019H11.0212V13.6511C11.9663 13.6825 12.7045 13.9074 13.2361 14.3259C13.7677 14.7391 14.0335 15.3066 14.0335 16.0284ZM11.0212 17.9429C11.7998 17.9115 12.4012 17.731 12.8254 17.4015C13.2495 17.072 13.4616 16.6143 13.4616 16.0284C13.4616 15.4426 13.2469 14.9849 12.8173 14.6554C12.3931 14.3259 11.7944 14.148 11.0212 14.1219V17.9429ZM8.02511 16.0284C8.02511 16.6143 8.2372 17.072 8.66138 17.4015C9.09094 17.7258 9.69231 17.9062 10.4655 17.9429V14.1219C9.68157 14.1533 9.07751 14.3337 8.65333 14.6632C8.23451 14.9875 8.02511 15.4426 8.02511 16.0284Z" fill="black"/>
<path d="M15.3865 13.2902H15.9744V17.8409L19.5827 13.2902H20.1223V18.7824H19.5344V14.2396L15.9261 18.7824H15.3865V13.2902Z" fill="black"/>
<path d="M24.4894 18.8294C23.931 18.8294 23.4263 18.7091 22.9752 18.4685C22.5296 18.2279 22.1779 17.8958 21.9201 17.4721C21.6678 17.0432 21.5416 16.5646 21.5416 16.0363C21.5416 15.508 21.6678 15.032 21.9201 14.6083C22.1779 14.1794 22.5323 13.8447 22.9833 13.604C23.4343 13.3634 23.939 13.2431 24.4975 13.2431C24.9163 13.2431 25.3029 13.3111 25.6572 13.4471C26.0116 13.5831 26.3123 13.7819 26.5593 14.0434L26.1808 14.4122C25.7405 13.978 25.1847 13.761 24.5136 13.761C24.0679 13.761 23.6625 13.8603 23.2974 14.0591C22.9323 14.2579 22.645 14.5299 22.4356 14.8751C22.2316 15.2203 22.1295 15.6074 22.1295 16.0363C22.1295 16.4652 22.2316 16.8523 22.4356 17.1975C22.645 17.5427 22.9323 17.8147 23.2974 18.0135C23.6625 18.2122 24.0679 18.3116 24.5136 18.3116C25.1901 18.3116 25.7458 18.0919 26.1808 17.6526L26.5593 18.0213C26.3123 18.2828 26.0089 18.4842 25.6492 18.6255C25.2948 18.7615 24.9082 18.8294 24.4894 18.8294Z" fill="black"/>
<path d="M32.5018 13.2902V18.7824H31.9138V16.2481H28.3861V18.7824H27.7901V13.2902H28.3861V15.7381H31.9138V13.2902H32.5018Z" fill="black"/>
<path d="M36.8775 18.8294C36.3191 18.8294 35.8117 18.7091 35.3553 18.4685C34.9042 18.2227 34.5499 17.8879 34.2921 17.4643C34.0398 17.0406 33.9136 16.5646 33.9136 16.0363C33.9136 15.508 34.0398 15.032 34.2921 14.6083C34.5499 14.1846 34.9042 13.8525 35.3553 13.6119C35.8117 13.3661 36.3191 13.2431 36.8775 13.2431C37.4359 13.2431 37.938 13.3634 38.3836 13.604C38.8346 13.8447 39.189 14.1794 39.4468 14.6083C39.7045 15.032 39.8334 15.508 39.8334 16.0363C39.8334 16.5646 39.7045 17.0432 39.4468 17.4721C39.189 17.8958 38.8346 18.2279 38.3836 18.4685C37.938 18.7091 37.4359 18.8294 36.8775 18.8294ZM36.8775 18.3116C37.3232 18.3116 37.7259 18.2148 38.0856 18.0213C38.4454 17.8225 38.7273 17.5506 38.9313 17.2053C39.1353 16.8549 39.2374 16.4652 39.2374 16.0363C39.2374 15.6074 39.1353 15.2203 38.9313 14.8751C38.7273 14.5246 38.4454 14.2526 38.0856 14.0591C37.7259 13.8603 37.3232 13.761 36.8775 13.761C36.4318 13.761 36.0264 13.8603 35.6613 14.0591C35.3016 14.2526 35.017 14.5246 34.8076 14.8751C34.6036 15.2203 34.5015 15.6074 34.5015 16.0363C34.5015 16.4652 34.6036 16.8549 34.8076 17.2053C35.017 17.5506 35.3016 17.8225 35.6613 18.0213C36.0264 18.2148 36.4318 18.3116 36.8775 18.3116Z" fill="black"/>
<path d="M41.2556 13.2902H41.8435V17.8409L45.4518 13.2902H45.9914V18.7824H45.4035V14.2396L41.7952 18.7824H41.2556V13.2902ZM43.6074 12.8901C43.2047 12.8901 42.8852 12.8011 42.649 12.6233C42.4181 12.4455 42.2999 12.197 42.2946 11.8779H42.7376C42.7429 12.0872 42.8235 12.2519 42.9792 12.3722C43.1349 12.4925 43.3443 12.5527 43.6074 12.5527C43.8651 12.5527 44.0719 12.4925 44.2276 12.3722C44.3886 12.2519 44.4719 12.0872 44.4772 11.8779H44.9202C44.9148 12.197 44.794 12.4455 44.5578 12.6233C44.3215 12.8011 44.0047 12.8901 43.6074 12.8901Z" fill="black"/>
<path d="M51.4596 13.2431C51.9858 13.2431 52.461 13.3634 52.8852 13.604C53.3148 13.8447 53.6504 14.1794 53.892 14.6083C54.139 15.032 54.2625 15.508 54.2625 16.0363C54.2625 16.5646 54.139 17.0432 53.892 17.4721C53.6504 17.8958 53.3148 18.2279 52.8852 18.4685C52.461 18.7091 51.9858 18.8294 51.4596 18.8294C51.0194 18.8294 50.6166 18.7615 50.2515 18.6255C49.8864 18.4895 49.5804 18.2881 49.3334 18.0213L49.7039 17.6526C50.1495 18.0919 50.7267 18.3116 51.4355 18.3116C51.8328 18.3116 52.1953 18.2227 52.5228 18.0449C52.8503 17.8618 53.1134 17.6133 53.3121 17.2995C53.5161 16.9804 53.6316 16.6221 53.6584 16.2246H50.7509V15.746H53.6504C53.6074 15.3642 53.4839 15.0242 53.2799 14.726C53.0812 14.4226 52.8208 14.1873 52.4986 14.0199C52.1765 13.8473 51.8221 13.761 51.4355 13.761C50.7267 13.761 50.1495 13.9807 49.7039 14.42L49.3334 14.0513C49.5804 13.7845 49.8864 13.5831 50.2515 13.4471C50.6166 13.3111 51.0194 13.2431 51.4596 13.2431Z" fill="black"/>
<path d="M59.9529 13.2902V18.7824H59.3649V13.7923H56.6427L56.5782 15.6283C56.5514 16.3867 56.4869 16.9987 56.3849 17.4643C56.2883 17.9245 56.1379 18.2698 55.9339 18.4999C55.7299 18.7248 55.4587 18.8373 55.1204 18.8373C54.9755 18.8373 54.8251 18.819 54.6694 18.7824L54.7177 18.2645C54.809 18.2855 54.8976 18.2959 54.9835 18.2959C55.2198 18.2959 55.4104 18.2044 55.5553 18.0213C55.7057 17.8382 55.8185 17.5558 55.8936 17.174C55.9688 16.7869 56.0198 16.2769 56.0466 15.644L56.1272 13.2902H59.9529Z" fill="black"/>
<path d="M65.8417 18.2802V18.7824H61.8549V13.2902H65.7209V13.7923H62.4509V15.746H65.3665V16.2403H62.4509V18.2802H65.8417Z" fill="black"/>
<path d="M69.0326 16.2638H67.7439V18.7824H67.164V13.2902H67.7439V15.7538H69.0326L70.9414 13.2902H71.5857L69.4917 15.9578L71.7065 18.7824H71.0219L69.0326 16.2638Z" fill="black"/>
<path d="M76.2642 13.7923H74.2828V18.7824H73.6949V13.7923H71.7136V13.2902H76.2642V13.7923Z" fill="black"/>
<path d="M79.4205 13.2902C80.14 13.2902 80.7038 13.4576 81.1118 13.7923C81.5199 14.1271 81.724 14.5874 81.724 15.1732C81.724 15.7591 81.5199 16.2194 81.1118 16.5541C80.7038 16.8837 80.14 17.0484 79.4205 17.0484H77.9063V18.7824H77.3103V13.2902H79.4205ZM79.4044 16.5384C79.9628 16.5384 80.3897 16.4207 80.685 16.1854C80.9803 15.9448 81.128 15.6074 81.128 15.1732C81.128 14.7286 80.9803 14.3886 80.685 14.1533C80.3897 13.9127 79.9628 13.7923 79.4044 13.7923H77.9063V16.5384H79.4044Z" fill="black"/>
<path d="M85.501 18.8294C84.9426 18.8294 84.4352 18.7091 83.9788 18.4685C83.5278 18.2227 83.1734 17.8879 82.9157 17.4643C82.6633 17.0406 82.5371 16.5646 82.5371 16.0363C82.5371 15.508 82.6633 15.032 82.9157 14.6083C83.1734 14.1846 83.5278 13.8525 83.9788 13.6119C84.4352 13.3661 84.9426 13.2431 85.501 13.2431C86.0594 13.2431 86.5615 13.3634 87.0071 13.604C87.4582 13.8447 87.8126 14.1794 88.0703 14.6083C88.328 15.032 88.4569 15.508 88.4569 16.0363C88.4569 16.5646 88.328 17.0432 88.0703 17.4721C87.8126 17.8958 87.4582 18.2279 87.0071 18.4685C86.5615 18.7091 86.0594 18.8294 85.501 18.8294ZM85.501 18.3116C85.9467 18.3116 86.3494 18.2148 86.7091 18.0213C87.0689 17.8225 87.3508 17.5506 87.5548 17.2053C87.7589 16.8549 87.8609 16.4652 87.8609 16.0363C87.8609 15.6074 87.7589 15.2203 87.5548 14.8751C87.3508 14.5246 87.0689 14.2526 86.7091 14.0591C86.3494 13.8603 85.9467 13.761 85.501 13.761C85.0554 13.761 84.65 13.8603 84.2849 14.0591C83.9251 14.2526 83.6405 14.5246 83.4311 14.8751C83.2271 15.2203 83.1251 15.6074 83.1251 16.0363C83.1251 16.4652 83.2271 16.8549 83.4311 17.2053C83.6405 17.5506 83.9251 17.8225 84.2849 18.0213C84.65 18.2148 85.0554 18.3116 85.501 18.3116Z" fill="black"/>
<path d="M94.5908 13.2902V18.7824H94.0028V16.2481H90.4751V18.7824H89.8791V13.2902H90.4751V15.7381H94.0028V13.2902H94.5908Z" fill="black"/>
<path d="M96.4939 13.2902H97.0818V17.8409L100.69 13.2902H101.23V18.7824H100.642V14.2396L97.0335 18.7824H96.4939V13.2902Z" fill="black"/>
<path d="M105.001 16.2638H103.712V18.7824H103.132V13.2902H103.712V15.7538H105.001L106.91 13.2902H107.554L105.46 15.9578L107.675 18.7824H106.99L105.001 16.2638Z" fill="black"/>
<path d="M108.591 13.2902H109.179V17.8409L112.787 13.2902H113.327V18.7824H112.739V14.2396L109.13 18.7824H108.591V13.2902Z" fill="black"/>
<path d="M1.15024 26.568H1.73819V31.1186L5.34643 26.568H5.88605V32.0601H5.2981V27.5173L1.68986 32.0601H1.15024V26.568Z" fill="black"/>
<path d="M14.6404 26.568V32.0601H14.0524V27.0701H10.4844V32.0601H9.89649V26.568H14.6404Z" fill="black"/>
<path d="M18.6529 26.568C19.3724 26.568 19.9362 26.7353 20.3442 27.0701C20.7523 27.4049 20.9564 27.8652 20.9564 28.451C20.9564 29.0368 20.7523 29.4971 20.3442 29.8319C19.9362 30.1614 19.3724 30.3262 18.6529 30.3262H17.1387V32.0601H16.5427V26.568H18.6529ZM18.6368 29.8162C19.1952 29.8162 19.6221 29.6985 19.9174 29.4631C20.2127 29.2225 20.3603 28.8851 20.3603 28.451C20.3603 28.0064 20.2127 27.6664 19.9174 27.431C19.6221 27.1904 19.1952 27.0701 18.6368 27.0701H17.1387V29.8162H18.6368Z" fill="black"/>
<path d="M24.7334 32.1072C24.175 32.1072 23.6676 31.9869 23.2112 31.7463C22.7602 31.5005 22.4058 31.1657 22.148 30.742C21.8957 30.3183 21.7695 29.8423 21.7695 29.314C21.7695 28.7858 21.8957 28.3098 22.148 27.8861C22.4058 27.4624 22.7602 27.1303 23.2112 26.8896C23.6676 26.6438 24.175 26.5209 24.7334 26.5209C25.2918 26.5209 25.7939 26.6412 26.2395 26.8818C26.6906 27.1224 27.0449 27.4572 27.3027 27.8861C27.5604 28.3098 27.6893 28.7858 27.6893 29.314C27.6893 29.8423 27.5604 30.3209 27.3027 30.7499C27.0449 31.1735 26.6906 31.5057 26.2395 31.7463C25.7939 31.9869 25.2918 32.1072 24.7334 32.1072ZM24.7334 31.5894C25.1791 31.5894 25.5818 31.4926 25.9415 31.2991C26.3013 31.1003 26.5832 30.8283 26.7872 30.4831C26.9912 30.1326 27.0933 29.743 27.0933 29.314C27.0933 28.8851 26.9912 28.4981 26.7872 28.1528C26.5832 27.8024 26.3013 27.5304 25.9415 27.3369C25.5818 27.1381 25.1791 27.0387 24.7334 27.0387C24.2878 27.0387 23.8824 27.1381 23.5172 27.3369C23.1575 27.5304 22.8729 27.8024 22.6635 28.1528C22.4595 28.4981 22.3575 28.8851 22.3575 29.314C22.3575 29.743 22.4595 30.1326 22.6635 30.4831C22.8729 30.8283 23.1575 31.1003 23.5172 31.2991C23.8824 31.4926 24.2878 31.5894 24.7334 31.5894Z" fill="black"/>
<path d="M32.6956 27.0701H29.6914L29.6995 32.0601H29.1115V26.568H32.6956V27.0701Z" fill="black"/>
<path d="M35.8308 26.568C36.5503 26.568 37.1141 26.7353 37.5221 27.0701C37.9302 27.4049 38.1343 27.8652 38.1343 28.451C38.1343 29.0368 37.9302 29.4971 37.5221 29.8319C37.1141 30.1614 36.5503 30.3262 35.8308 30.3262H34.3166V32.0601H33.7206V26.568H35.8308ZM35.8147 29.8162C36.3731 29.8162 36.8 29.6985 37.0953 29.4631C37.3906 29.2225 37.5382 28.8851 37.5382 28.451C37.5382 28.0064 37.3906 27.6664 37.0953 27.431C36.8 27.1904 36.3731 27.0701 35.8147 27.0701H34.3166V29.8162H35.8147Z" fill="black"/>
<path d="M42.6851 30.5929H39.544L38.8675 32.0601H38.2473L40.8246 26.568H41.4126L43.9899 32.0601H43.3617L42.6851 30.5929ZM42.4677 30.1222L41.1146 27.1721L39.7615 30.1222H42.4677Z" fill="black"/>
<path d="M50.9256 26.568V32.0601H50.3538V27.6664L48.1389 31.3618H47.857L45.6421 27.6899V32.0601H45.0703V26.568H45.5616L48.01 30.64L50.4343 26.568H50.9256Z" fill="black"/>
<path d="M58.6808 26.568V32.0601H58.109V27.6664L55.8941 31.3618H55.6122L53.3974 27.6899V32.0601H52.8255V26.568H53.3168L55.7653 30.64L58.1895 26.568H58.6808Z" fill="black"/>
<path d="M65.2924 26.568V32.0601H64.7044V29.5259H61.1767V32.0601H60.5807V26.568H61.1767V29.0159H64.7044V26.568H65.2924Z" fill="black"/>
<path d="M69.6681 32.1072C69.1097 32.1072 68.6023 31.9869 68.1459 31.7463C67.6948 31.5005 67.3405 31.1657 67.0827 30.742C66.8304 30.3183 66.7042 29.8423 66.7042 29.314C66.7042 28.7858 66.8304 28.3098 67.0827 27.8861C67.3405 27.4624 67.6948 27.1303 68.1459 26.8896C68.6023 26.6438 69.1097 26.5209 69.6681 26.5209C70.2265 26.5209 70.7285 26.6412 71.1742 26.8818C71.6252 27.1224 71.9796 27.4572 72.2374 27.8861C72.4951 28.3098 72.6239 28.7858 72.6239 29.314C72.6239 29.8423 72.4951 30.3209 72.2374 30.7499C71.9796 31.1735 71.6252 31.5057 71.1742 31.7463C70.7285 31.9869 70.2265 32.1072 69.6681 32.1072ZM69.6681 31.5894C70.1138 31.5894 70.5165 31.4926 70.8762 31.2991C71.236 31.1003 71.5178 30.8283 71.7219 30.4831C71.9259 30.1326 72.0279 29.743 72.0279 29.314C72.0279 28.8851 71.9259 28.4981 71.7219 28.1528C71.5178 27.8024 71.236 27.5304 70.8762 27.3369C70.5165 27.1381 70.1138 27.0387 69.6681 27.0387C69.2224 27.0387 68.817 27.1381 68.4519 27.3369C68.0922 27.5304 67.8076 27.8024 67.5982 28.1528C67.3942 28.4981 67.2921 28.8851 67.2921 29.314C67.2921 29.743 67.3942 30.1326 67.5982 30.4831C67.8076 30.8283 68.0922 31.1003 68.4519 31.2991C68.817 31.4926 69.2224 31.5894 69.6681 31.5894Z" fill="black"/>
<path d="M77.6303 27.0701H74.6261L74.6341 32.0601H74.0462V26.568H77.6303V27.0701Z" fill="black"/>
<path d="M80.365 32.1072C79.8065 32.1072 79.2991 31.9869 78.8427 31.7463C78.3917 31.5005 78.0373 31.1657 77.7796 30.742C77.5272 30.3183 77.401 29.8423 77.401 29.314C77.401 28.7858 77.5272 28.3098 77.7796 27.8861C78.0373 27.4624 78.3917 27.1303 78.8427 26.8896C79.2991 26.6438 79.8065 26.5209 80.365 26.5209C80.9234 26.5209 81.4254 26.6412 81.8711 26.8818C82.3221 27.1224 82.6765 27.4572 82.9342 27.8861C83.1919 28.3098 83.3208 28.7858 83.3208 29.314C83.3208 29.8423 83.1919 30.3209 82.9342 30.7499C82.6765 31.1735 82.3221 31.5057 81.8711 31.7463C81.4254 31.9869 80.9234 32.1072 80.365 32.1072ZM80.365 31.5894C80.8106 31.5894 81.2133 31.4926 81.5731 31.2991C81.9328 31.1003 82.2147 30.8283 82.4187 30.4831C82.6228 30.1326 82.7248 29.743 82.7248 29.314C82.7248 28.8851 82.6228 28.4981 82.4187 28.1528C82.2147 27.8024 81.9328 27.5304 81.5731 27.3369C81.2133 27.1381 80.8106 27.0387 80.365 27.0387C79.9193 27.0387 79.5139 27.1381 79.1488 27.3369C78.789 27.5304 78.5045 27.8024 78.2951 28.1528C78.091 28.4981 77.989 28.8851 77.989 29.314C77.989 29.743 78.091 30.1326 78.2951 30.4831C78.5045 30.8283 78.789 31.1003 79.1488 31.2991C79.5139 31.4926 79.9193 31.5894 80.365 31.5894Z" fill="black"/>
<path d="M89.3236 32.1072C88.7652 32.1072 88.2577 31.9869 87.8013 31.7463C87.3503 31.5005 86.9959 31.1657 86.7382 30.742C86.4859 30.3183 86.3597 29.8423 86.3597 29.314C86.3597 28.7858 86.4859 28.3098 86.7382 27.8861C86.9959 27.4624 87.3503 27.1303 87.8013 26.8896C88.2577 26.6438 88.7652 26.5209 89.3236 26.5209C89.882 26.5209 90.384 26.6412 90.8297 26.8818C91.2807 27.1224 91.6351 27.4572 91.8928 27.8861C92.1506 28.3098 92.2794 28.7858 92.2794 29.314C92.2794 29.8423 92.1506 30.3209 91.8928 30.7499C91.6351 31.1735 91.2807 31.5057 90.8297 31.7463C90.384 31.9869 89.882 32.1072 89.3236 32.1072ZM89.3236 31.5894C89.7692 31.5894 90.1719 31.4926 90.5317 31.2991C90.8914 31.1003 91.1733 30.8283 91.3774 30.4831C91.5814 30.1326 91.6834 29.743 91.6834 29.314C91.6834 28.8851 91.5814 28.4981 91.3774 28.1528C91.1733 27.8024 90.8914 27.5304 90.5317 27.3369C90.1719 27.1381 89.7692 27.0387 89.3236 27.0387C88.8779 27.0387 88.4725 27.1381 88.1074 27.3369C87.7477 27.5304 87.4631 27.8024 87.2537 28.1528C87.0496 28.4981 86.9476 28.8851 86.9476 29.314C86.9476 29.743 87.0496 30.1326 87.2537 30.4831C87.4631 30.8283 87.7477 31.1003 88.1074 31.2991C88.4725 31.4926 88.8779 31.5894 89.3236 31.5894Z" fill="black"/>
<path d="M93.7017 26.568H97.8254V27.0623H94.2896V28.859H96.134C96.7998 28.859 97.3046 28.9924 97.6482 29.2591C97.9972 29.5259 98.1717 29.913 98.1717 30.4203C98.1717 30.9486 97.9838 31.354 97.6079 31.6364C97.2374 31.9189 96.7032 32.0601 96.0051 32.0601H93.7017V26.568ZM95.9971 31.5972C96.5179 31.5972 96.9099 31.5004 97.173 31.3069C97.4415 31.1134 97.5757 30.8257 97.5757 30.4439C97.5757 30.0673 97.4441 29.7874 97.181 29.6043C96.9233 29.416 96.5287 29.3219 95.9971 29.3219H94.2896V31.5972H95.9971Z" fill="black"/>
<path d="M103.54 31.558V32.0601H99.5535V26.568H103.419V27.0701H100.149V29.0237H103.065V29.518H100.149V31.558H103.54Z" fill="black"/>
<path d="M107.296 32.1072C106.737 32.1072 106.233 31.9869 105.782 31.7463C105.336 31.5057 104.984 31.1735 104.726 30.7499C104.474 30.3209 104.348 29.8423 104.348 29.314C104.348 28.7858 104.474 28.3098 104.726 27.8861C104.984 27.4572 105.339 27.1224 105.79 26.8818C106.241 26.6412 106.745 26.5209 107.304 26.5209C107.723 26.5209 108.109 26.5889 108.464 26.7249C108.818 26.8609 109.119 27.0596 109.366 27.3212L108.987 27.6899C108.547 27.2558 107.991 27.0387 107.32 27.0387C106.874 27.0387 106.469 27.1381 106.104 27.3369C105.739 27.5356 105.451 27.8076 105.242 28.1528C105.038 28.4981 104.936 28.8851 104.936 29.314C104.936 29.743 105.038 30.13 105.242 30.4752C105.451 30.8205 105.739 31.0925 106.104 31.2912C106.469 31.49 106.874 31.5894 107.32 31.5894C107.996 31.5894 108.552 31.3697 108.987 30.9303L109.366 31.2991C109.119 31.5606 108.815 31.762 108.455 31.9032C108.101 32.0392 107.714 32.1072 107.296 32.1072Z" fill="black"/>
<path d="M115.34 26.568V32.0601H114.752V27.0701H111.184V32.0601H110.596V26.568H115.34Z" fill="black"/>
<path d="M121.229 31.558V32.0601H117.243V26.568H121.109V27.0701H117.839V29.0237H120.754V29.518H117.839V31.558H121.229Z" fill="black"/>
<path d="M126.53 26.568V32.0601H125.951V29.7848C125.338 30.0411 124.745 30.1693 124.171 30.1693C123.51 30.1693 122.995 30.0123 122.624 29.6985C122.259 29.3847 122.077 28.9453 122.077 28.3804V26.568H122.664V28.3176C122.664 28.7413 122.801 29.0708 123.075 29.3062C123.349 29.5416 123.733 29.6593 124.227 29.6593C124.791 29.6593 125.365 29.5285 125.951 29.267V26.568H126.53Z" fill="black"/>
<path d="M132.43 31.558V32.0601H128.443V26.568H132.309V27.0701H129.039V29.0237H131.954V29.518H129.039V31.558H132.43Z" fill="black"/>
<path d="M138.464 26.568V32.0601H137.876V29.5259H134.348V32.0601H133.752V26.568H134.348V29.0159H137.876V26.568H138.464Z" fill="black"/>
<path d="M140.367 26.568H140.955V31.1186L144.563 26.568H145.103V32.0601H144.515V27.5173L140.906 32.0601H140.367V26.568Z" fill="black"/>
<path d="M151 26.568V32.0601H150.412V30.3968H148.729C148.653 30.3968 148.546 30.3916 148.406 30.3811L147.223 32.0601H146.586L147.867 30.2791C147.453 30.1588 147.137 29.947 146.916 29.6436C146.696 29.335 146.586 28.9584 146.586 28.5138C146.586 27.8965 146.785 27.4179 147.182 27.078C147.585 26.738 148.127 26.568 148.809 26.568H151ZM147.182 28.4981C147.182 28.9479 147.316 29.2957 147.585 29.5416C147.859 29.7822 148.256 29.9025 148.777 29.9025H150.412V27.0701H148.833C148.307 27.0701 147.899 27.193 147.609 27.4389C147.325 27.6795 147.182 28.0325 147.182 28.4981Z" fill="black"/>
</svg>
