<svg width="22" height="23" viewBox="0 0 22 23" fill="none" xmlns="http://www.w3.org/2000/svg">
<path d="M8.1875 0.0783691C10.3424 0.0783691 12.409 0.950245 13.9327 2.5022C15.4565 4.05415 16.3125 6.15904 16.3125 8.35383C16.3125 10.4036 15.575 12.2879 14.3625 13.7392L14.7 14.083H15.6875L21.9375 20.4487L20.0625 22.3585L13.8125 15.9927V14.9869L13.475 14.6432C12.05 15.8781 10.2 16.6293 8.1875 16.6293C6.03262 16.6293 3.96599 15.7574 2.44226 14.2055C0.918524 12.6535 0.0625 10.5486 0.0625 8.35383C0.0625 6.15904 0.918524 4.05415 2.44226 2.5022C3.96599 0.950245 6.03262 0.0783691 8.1875 0.0783691V0.0783691ZM8.1875 2.62467C5.0625 2.62467 2.5625 5.17096 2.5625 8.35383C2.5625 11.5367 5.0625 14.083 8.1875 14.083C11.3125 14.083 13.8125 11.5367 13.8125 8.35383C13.8125 5.17096 11.3125 2.62467 8.1875 2.62467Z" fill="black"/>
</svg>
