<svg width="22" height="24" viewBox="0 0 22 24" fill="none" xmlns="http://www.w3.org/2000/svg">
<path fill-rule="evenodd" clip-rule="evenodd" d="M7.62315 0.855957H14.3769C20.5406 0.855957 22 2.3424 22 8.62027V15.499C22 21.7769 20.5406 23.2634 14.3769 23.2634H7.62315C1.45942 23.2634 0 21.7769 0 15.499V8.62027C0 2.3424 1.45942 0.855957 7.62315 0.855957Z" fill="black"/>
<path fill-rule="evenodd" clip-rule="evenodd" d="M18.0098 8.57277C18.1185 8.22488 18.0098 7.97187 17.5285 7.97187H15.9294C15.5257 7.97187 15.3394 8.19325 15.2307 8.43045C15.2307 8.43045 14.4078 10.4545 13.2589 11.7671C12.8863 12.1466 12.7155 12.2731 12.5137 12.2731C12.405 12.2731 12.2653 12.1466 12.2653 11.7987V8.55696C12.2653 8.14581 12.1411 7.95605 11.7995 7.95605H9.28434C9.03593 7.95605 8.88067 8.14581 8.88067 8.33557C8.88067 8.7309 9.45512 8.82578 9.51723 9.93271V12.3363C9.51723 12.8582 9.42407 12.953 9.22224 12.953C8.67884 12.953 7.35915 10.9131 6.56733 8.58859C6.41208 8.13 6.25682 7.95605 5.85315 7.95605H4.23847C3.7727 7.95605 3.69507 8.17744 3.69507 8.41464C3.69507 8.8416 4.23847 10.9922 6.22577 13.8386C7.54546 15.7836 9.42407 16.8273 11.1164 16.8273C12.1411 16.8273 12.2653 16.5901 12.2653 16.1948V14.7241C12.2653 14.2497 12.3584 14.1707 12.6845 14.1707C12.9174 14.1707 13.3366 14.2972 14.2836 15.2302C15.3704 16.3371 15.5567 16.8431 16.1623 16.8431H17.7614C18.2272 16.8431 18.4445 16.6059 18.3203 16.1473C18.1806 15.6887 17.6527 15.0246 16.9696 14.2339C16.597 13.7912 16.038 13.3009 15.8673 13.0637C15.6344 12.7475 15.6965 12.621 15.8673 12.3363C15.8517 12.3363 17.808 9.52157 18.0098 8.57277Z" fill="white"/>
</svg>
